<mxfile host="65bd71144e">
    <diagram name="db_version 3" id="2ca16b54-16f6-2749-3443-fa8db7711227">
        <mxGraphModel dx="664" dy="862" grid="1" gridSize="10" guides="1" tooltips="1" connect="1" arrows="1" fold="1" page="1" pageScale="1" pageWidth="1100" pageHeight="850" background="#ffffff" math="0" shadow="0">
            <root>
                <mxCell id="0"/>
                <mxCell id="1" parent="0"/>
                <mxCell id="MJs-i36JxJc8pLhcD7cr-4" value="" style="rounded=0;whiteSpace=wrap;html=1;fillColor=none;dashed=1;" parent="1" vertex="1">
                    <mxGeometry x="50" y="30" width="200" height="460" as="geometry"/>
                </mxCell>
                <mxCell id="MJs-i36JxJc8pLhcD7cr-14" style="edgeStyle=orthogonalEdgeStyle;rounded=0;orthogonalLoop=1;jettySize=auto;html=1;exitX=1;exitY=0.25;exitDx=0;exitDy=0;entryX=0;entryY=0.43;entryDx=0;entryDy=0;startArrow=none;startFill=0;startSize=12;endArrow=classic;endFill=1;endSize=12;strokeWidth=1;entryPerimeter=0;" parent="1" source="2ed32ef02a7f4228-1" target="2ed32ef02a7f4228-4" edge="1">
                    <mxGeometry relative="1" as="geometry">
                        <Array as="points">
                            <mxPoint x="270" y="63"/>
                            <mxPoint x="270" y="20"/>
                            <mxPoint x="810" y="20"/>
                            <mxPoint x="810" y="83"/>
                        </Array>
                    </mxGeometry>
                </mxCell>
                <mxCell id="2ed32ef02a7f4228-1" value="&lt;div style=&quot;box-sizing: border-box ; width: 100% ; background: #e4e4e4 ; padding: 2px&quot;&gt;Muscles (Future)&lt;/div&gt;&lt;table style=&quot;width: 100% ; font-size: 1em&quot; cellpadding=&quot;2&quot; cellspacing=&quot;0&quot;&gt;&lt;tbody&gt;&lt;tr&gt;&lt;td&gt;PK&lt;/td&gt;&lt;td&gt;uniqueId&lt;/td&gt;&lt;/tr&gt;&lt;tr&gt;&lt;td&gt;&lt;br&gt;&lt;/td&gt;&lt;td&gt;muscle&lt;/td&gt;&lt;/tr&gt;&lt;tr&gt;&lt;td&gt;&lt;/td&gt;&lt;td&gt;&lt;br&gt;&lt;/td&gt;&lt;/tr&gt;&lt;/tbody&gt;&lt;/table&gt;" style="verticalAlign=top;align=left;overflow=fill;html=1;rounded=0;shadow=0;comic=0;labelBackgroundColor=none;strokeWidth=1;fontFamily=Verdana;fontSize=12" parent="1" vertex="1">
                    <mxGeometry x="60" y="40" width="180" height="90" as="geometry"/>
                </mxCell>
                <mxCell id="MJs-i36JxJc8pLhcD7cr-13" style="edgeStyle=orthogonalEdgeStyle;rounded=0;orthogonalLoop=1;jettySize=auto;html=1;exitX=0;exitY=0.5;exitDx=0;exitDy=0;entryX=1;entryY=0.875;entryDx=0;entryDy=0;entryPerimeter=0;startArrow=classic;startFill=1;startSize=12;endArrow=none;endFill=0;endSize=12;strokeWidth=1;" parent="1" source="2ed32ef02a7f4228-2" target="2ed32ef02a7f4228-8" edge="1">
                    <mxGeometry relative="1" as="geometry">
                        <Array as="points">
                            <mxPoint x="230" y="645"/>
                            <mxPoint x="230" y="500"/>
                            <mxPoint x="550" y="500"/>
                            <mxPoint x="550" y="320"/>
                        </Array>
                    </mxGeometry>
                </mxCell>
                <mxCell id="2ed32ef02a7f4228-2" value="&lt;div style=&quot;box-sizing: border-box ; width: 100% ; background: #e4e4e4 ; padding: 2px&quot;&gt;Plan&lt;/div&gt;&lt;table style=&quot;width: 100% ; font-size: 1em&quot; cellpadding=&quot;2&quot; cellspacing=&quot;0&quot;&gt;&lt;tbody&gt;&lt;tr&gt;&lt;td&gt;PK&lt;/td&gt;&lt;td&gt;uniqueId&lt;/td&gt;&lt;/tr&gt;&lt;tr&gt;&lt;td&gt;FK1&lt;/td&gt;&lt;td&gt;week&lt;/td&gt;&lt;/tr&gt;&lt;tr&gt;&lt;td&gt;&lt;/td&gt;&lt;td&gt;start_date&lt;/td&gt;&lt;/tr&gt;&lt;tr&gt;&lt;td&gt;&lt;br&gt;&lt;/td&gt;&lt;td&gt;end_date&lt;br&gt;&lt;/td&gt;&lt;/tr&gt;&lt;tr&gt;&lt;td&gt;&lt;br&gt;&lt;/td&gt;&lt;td&gt;goal_weight&lt;br&gt;&lt;/td&gt;&lt;/tr&gt;&lt;tr&gt;&lt;td&gt;FK2&lt;/td&gt;&lt;td&gt;current_weight&lt;/td&gt;&lt;/tr&gt;&lt;tr&gt;&lt;td&gt;&lt;br&gt;&lt;/td&gt;&lt;td&gt;met_goal&lt;/td&gt;&lt;/tr&gt;&lt;tr&gt;&lt;td&gt;&lt;br&gt;&lt;/td&gt;&lt;td&gt;met_goal_date&lt;/td&gt;&lt;/tr&gt;&lt;tr&gt;&lt;td&gt;&lt;br&gt;&lt;/td&gt;&lt;td&gt;met_goal_percent&lt;/td&gt;&lt;/tr&gt;&lt;tr&gt;&lt;td&gt;&lt;br&gt;&lt;/td&gt;&lt;td&gt;weight_loss_rate&lt;br&gt;&lt;/td&gt;&lt;/tr&gt;&lt;tr&gt;&lt;td&gt;&lt;br&gt;&lt;/td&gt;&lt;td&gt;wegiht_loss_goal_rate&lt;/td&gt;&lt;/tr&gt;&lt;/tbody&gt;&lt;/table&gt;" style="verticalAlign=top;align=left;overflow=fill;html=1;rounded=0;shadow=0;comic=0;labelBackgroundColor=none;strokeWidth=1;fontFamily=Verdana;fontSize=12" parent="1" vertex="1">
                    <mxGeometry x="250" y="530" width="180" height="230" as="geometry"/>
                </mxCell>
                <mxCell id="2ed32ef02a7f4228-3" value="&lt;div style=&quot;box-sizing: border-box ; width: 100% ; background: #e4e4e4 ; padding: 2px&quot;&gt;Gym (Future)&lt;/div&gt;&lt;table style=&quot;width: 100% ; font-size: 1em&quot; cellpadding=&quot;2&quot; cellspacing=&quot;0&quot;&gt;&lt;tbody&gt;&lt;tr&gt;&lt;td&gt;PK&lt;/td&gt;&lt;td&gt;uniqueId&lt;/td&gt;&lt;/tr&gt;&lt;tr&gt;&lt;td&gt;&lt;br&gt;&lt;/td&gt;&lt;td&gt;Type&lt;/td&gt;&lt;/tr&gt;&lt;tr&gt;&lt;td&gt;FK1&lt;/td&gt;&lt;td&gt;Equipment&lt;/td&gt;&lt;/tr&gt;&lt;tr&gt;&lt;td&gt;Ftr&lt;/td&gt;&lt;td&gt;Name&lt;/td&gt;&lt;/tr&gt;&lt;tr&gt;&lt;td&gt;Ftr&lt;/td&gt;&lt;td&gt;S_address&lt;/td&gt;&lt;/tr&gt;&lt;tr&gt;&lt;td&gt;Ftr&lt;/td&gt;&lt;td&gt;Suite&lt;/td&gt;&lt;/tr&gt;&lt;tr&gt;&lt;td&gt;Ftr&lt;/td&gt;&lt;td&gt;City&lt;/td&gt;&lt;/tr&gt;&lt;tr&gt;&lt;td&gt;Ftr&lt;/td&gt;&lt;td&gt;State&lt;/td&gt;&lt;/tr&gt;&lt;tr&gt;&lt;td&gt;Ftr&lt;/td&gt;&lt;td&gt;Zip&lt;/td&gt;&lt;/tr&gt;&lt;/tbody&gt;&lt;/table&gt;" style="verticalAlign=top;align=left;overflow=fill;html=1;rounded=0;shadow=0;comic=0;labelBackgroundColor=none;strokeWidth=1;fontFamily=Verdana;fontSize=12" parent="1" vertex="1">
                    <mxGeometry x="60" y="270" width="180" height="200" as="geometry"/>
                </mxCell>
                <mxCell id="MJs-i36JxJc8pLhcD7cr-7" style="edgeStyle=orthogonalEdgeStyle;rounded=0;orthogonalLoop=1;jettySize=auto;html=1;exitX=0;exitY=0.5;exitDx=0;exitDy=0;entryX=1;entryY=0.2;entryDx=0;entryDy=0;entryPerimeter=0;endArrow=ERmany;endFill=0;strokeWidth=1;startSize=12;endSize=12;" parent="1" source="2ed32ef02a7f4228-4" target="2ed32ef02a7f4228-10" edge="1">
                    <mxGeometry relative="1" as="geometry">
                        <Array as="points">
                            <mxPoint x="900" y="70"/>
                            <mxPoint x="860" y="70"/>
                            <mxPoint x="860" y="210"/>
                        </Array>
                    </mxGeometry>
                </mxCell>
                <mxCell id="MJs-i36JxJc8pLhcD7cr-8" style="edgeStyle=orthogonalEdgeStyle;rounded=0;orthogonalLoop=1;jettySize=auto;html=1;exitX=0.011;exitY=0.84;exitDx=0;exitDy=0;entryX=1;entryY=0.315;entryDx=0;entryDy=0;entryPerimeter=0;endArrow=ERmany;endFill=0;strokeWidth=1;startSize=12;endSize=12;exitPerimeter=0;" parent="1" source="2ed32ef02a7f4228-4" target="2ed32ef02a7f4228-10" edge="1">
                    <mxGeometry relative="1" as="geometry">
                        <Array as="points">
                            <mxPoint x="870" y="124"/>
                            <mxPoint x="870" y="233"/>
                        </Array>
                    </mxGeometry>
                </mxCell>
                <mxCell id="2ed32ef02a7f4228-4" value="&lt;div style=&quot;box-sizing: border-box ; width: 100% ; background: #e4e4e4 ; padding: 2px&quot;&gt;Exercise&lt;/div&gt;&lt;table style=&quot;width: 100% ; font-size: 1em&quot; cellpadding=&quot;2&quot; cellspacing=&quot;0&quot;&gt;&lt;tbody&gt;&lt;tr&gt;&lt;td&gt;PK&lt;/td&gt;&lt;td&gt;uniqueId&lt;/td&gt;&lt;/tr&gt;&lt;tr&gt;&lt;td&gt;&lt;br&gt;&lt;/td&gt;&lt;td&gt;Name&lt;/td&gt;&lt;/tr&gt;&lt;tr&gt;&lt;td&gt;FK1&lt;/td&gt;&lt;td&gt;muscles&lt;/td&gt;&lt;/tr&gt;&lt;tr&gt;&lt;td&gt;FK2&lt;/td&gt;&lt;td&gt;equipment&lt;/td&gt;&lt;/tr&gt;&lt;tr&gt;&lt;td&gt;&lt;br&gt;&lt;/td&gt;&lt;td&gt;aType&lt;br&gt;&lt;/td&gt;&lt;/tr&gt;&lt;/tbody&gt;&lt;/table&gt;" style="verticalAlign=top;align=left;overflow=fill;html=1;rounded=0;shadow=0;comic=0;labelBackgroundColor=none;strokeWidth=1;fontFamily=Verdana;fontSize=12" parent="1" vertex="1">
                    <mxGeometry x="900" y="40" width="180" height="100" as="geometry"/>
                </mxCell>
                <mxCell id="MJs-i36JxJc8pLhcD7cr-12" style="edgeStyle=orthogonalEdgeStyle;rounded=0;orthogonalLoop=1;jettySize=auto;html=1;exitX=0;exitY=0.145;exitDx=0;exitDy=0;startArrow=ERmany;startFill=0;startSize=12;endArrow=ERmany;endFill=0;endSize=12;strokeWidth=1;entryX=1.011;entryY=0.187;entryDx=0;entryDy=0;entryPerimeter=0;exitPerimeter=0;" parent="1" source="2ed32ef02a7f4228-7" target="2ed32ef02a7f4228-2" edge="1">
                    <mxGeometry relative="1" as="geometry">
                        <Array as="points">
                            <mxPoint x="460" y="559"/>
                            <mxPoint x="460" y="573"/>
                        </Array>
                    </mxGeometry>
                </mxCell>
                <mxCell id="2ed32ef02a7f4228-7" value="&lt;div style=&quot;box-sizing: border-box ; width: 100% ; background: #e4e4e4 ; padding: 2px&quot;&gt;week&lt;/div&gt;&lt;table style=&quot;width: 100% ; font-size: 1em&quot; cellpadding=&quot;2&quot; cellspacing=&quot;0&quot;&gt;&lt;tbody&gt;&lt;tr&gt;&lt;td&gt;PK&lt;/td&gt;&lt;td&gt;uniqueId&lt;/td&gt;&lt;/tr&gt;&lt;tr&gt;&lt;td&gt;FK1&lt;/td&gt;&lt;td&gt;day&lt;/td&gt;&lt;/tr&gt;&lt;tr&gt;&lt;td&gt;&lt;/td&gt;&lt;td&gt;num_days_workouts&lt;/td&gt;&lt;/tr&gt;&lt;tr&gt;&lt;td&gt;&lt;br&gt;&lt;/td&gt;&lt;td&gt;num_days_rests&lt;br&gt;&lt;/td&gt;&lt;/tr&gt;&lt;tr&gt;&lt;td&gt;&lt;br&gt;&lt;/td&gt;&lt;td&gt;week_num&lt;br&gt;&lt;/td&gt;&lt;/tr&gt;&lt;tr&gt;&lt;td&gt;&lt;br&gt;&lt;/td&gt;&lt;td&gt;week_weight_start&lt;br&gt;&lt;/td&gt;&lt;/tr&gt;&lt;tr&gt;&lt;td&gt;&lt;br&gt;&lt;/td&gt;&lt;td&gt;week_weight_end&lt;/td&gt;&lt;/tr&gt;&lt;tr&gt;&lt;td&gt;&lt;br&gt;&lt;/td&gt;&lt;td&gt;met_week_goal&lt;/td&gt;&lt;/tr&gt;&lt;tr&gt;&lt;td&gt;&lt;br&gt;&lt;/td&gt;&lt;td&gt;met_week_goal_percent&lt;/td&gt;&lt;/tr&gt;&lt;/tbody&gt;&lt;/table&gt;" style="verticalAlign=top;align=left;overflow=fill;html=1;rounded=0;shadow=0;comic=0;labelBackgroundColor=none;strokeWidth=1;fontFamily=Verdana;fontSize=12" parent="1" vertex="1">
                    <mxGeometry x="490" y="530" width="180" height="200" as="geometry"/>
                </mxCell>
                <mxCell id="MJs-i36JxJc8pLhcD7cr-17" style="edgeStyle=orthogonalEdgeStyle;rounded=0;orthogonalLoop=1;jettySize=auto;html=1;exitX=0.011;exitY=0.813;exitDx=0;exitDy=0;startArrow=ERmany;startFill=0;startSize=12;endArrow=none;endFill=0;endSize=12;strokeWidth=1;exitPerimeter=0;" parent="1" source="2ed32ef02a7f4228-8" edge="1">
                    <mxGeometry relative="1" as="geometry">
                        <mxPoint x="242" y="290" as="targetPoint"/>
                        <Array as="points">
                            <mxPoint x="286" y="300"/>
                            <mxPoint x="286" y="290"/>
                            <mxPoint x="242" y="290"/>
                        </Array>
                    </mxGeometry>
                </mxCell>
                <mxCell id="2ed32ef02a7f4228-8" value="&lt;div style=&quot;box-sizing: border-box ; width: 100% ; background: #e4e4e4 ; padding: 2px&quot;&gt;User&lt;/div&gt;&lt;table style=&quot;width: 100% ; font-size: 1em&quot; cellpadding=&quot;2&quot; cellspacing=&quot;0&quot;&gt;&lt;tbody&gt;&lt;tr&gt;&lt;td&gt;PK&lt;/td&gt;&lt;td&gt;uniqueId&lt;/td&gt;&lt;/tr&gt;&lt;tr&gt;&lt;td&gt;&lt;br&gt;&lt;/td&gt;&lt;td&gt;user_name&lt;/td&gt;&lt;/tr&gt;&lt;tr&gt;&lt;td&gt;&lt;/td&gt;&lt;td&gt;email&lt;/td&gt;&lt;/tr&gt;&lt;tr&gt;&lt;td&gt;&lt;br&gt;&lt;/td&gt;&lt;td&gt;password&lt;br&gt;&lt;/td&gt;&lt;/tr&gt;&lt;tr&gt;&lt;td&gt;Ftr&lt;/td&gt;&lt;td&gt;fname&lt;br&gt;&lt;/td&gt;&lt;/tr&gt;&lt;tr&gt;&lt;td&gt;Ftr&lt;/td&gt;&lt;td&gt;mname&lt;br&gt;&lt;/td&gt;&lt;/tr&gt;&lt;tr&gt;&lt;td&gt;Ftr&lt;/td&gt;&lt;td&gt;lname&lt;br&gt;&lt;/td&gt;&lt;/tr&gt;&lt;tr&gt;&lt;td&gt;Ftr&lt;/td&gt;&lt;td&gt;s_address&lt;/td&gt;&lt;/tr&gt;&lt;tr&gt;&lt;td&gt;Ftr&lt;br&gt;&lt;/td&gt;&lt;td&gt;suite&lt;br&gt;&lt;/td&gt;&lt;/tr&gt;&lt;tr&gt;&lt;td&gt;Ftr&lt;br&gt;&lt;/td&gt;&lt;td&gt;city&lt;br&gt;&lt;/td&gt;&lt;/tr&gt;&lt;tr&gt;&lt;td&gt;Ftr&lt;br&gt;&lt;/td&gt;&lt;td&gt;state&lt;br&gt;&lt;/td&gt;&lt;/tr&gt;&lt;tr&gt;&lt;td&gt;Ftr&lt;/td&gt;&lt;td&gt;zip&lt;/td&gt;&lt;/tr&gt;&lt;tr&gt;&lt;td&gt;Ftr&lt;/td&gt;&lt;td&gt;sex&lt;/td&gt;&lt;/tr&gt;&lt;tr&gt;&lt;td&gt;Ftr FK1&lt;br&gt;&lt;/td&gt;&lt;td&gt;gym&lt;/td&gt;&lt;/tr&gt;&lt;tr&gt;&lt;td&gt;Ftr&lt;/td&gt;&lt;td&gt;current_weight&lt;br&gt;&lt;/td&gt;&lt;/tr&gt;&lt;tr&gt;&lt;td&gt;Ftr&lt;/td&gt;&lt;td&gt;current_height&lt;/td&gt;&lt;/tr&gt;&lt;/tbody&gt;&lt;/table&gt;" style="verticalAlign=top;align=left;overflow=fill;html=1;rounded=0;shadow=0;comic=0;labelBackgroundColor=none;strokeWidth=1;fontFamily=Verdana;fontSize=12" parent="1" vertex="1">
                    <mxGeometry x="340" y="40" width="180" height="320" as="geometry"/>
                </mxCell>
                <mxCell id="MJs-i36JxJc8pLhcD7cr-11" style="edgeStyle=orthogonalEdgeStyle;rounded=0;orthogonalLoop=1;jettySize=auto;html=1;exitX=0;exitY=0.25;exitDx=0;exitDy=0;entryX=1;entryY=0.25;entryDx=0;entryDy=0;endArrow=ERmany;endFill=0;startArrow=ERmany;startFill=0;strokeWidth=1;startSize=12;endSize=12;" parent="1" source="2ed32ef02a7f4228-9" target="2ed32ef02a7f4228-7" edge="1">
                    <mxGeometry relative="1" as="geometry"/>
                </mxCell>
                <mxCell id="2ed32ef02a7f4228-9" value="&lt;div style=&quot;box-sizing: border-box ; width: 100% ; background: #e4e4e4 ; padding: 2px&quot;&gt;day&lt;/div&gt;&lt;table style=&quot;width: 100% ; font-size: 1em&quot; cellpadding=&quot;2&quot; cellspacing=&quot;0&quot;&gt;&lt;tbody&gt;&lt;tr&gt;&lt;td&gt;PK&lt;/td&gt;&lt;td&gt;uniqueId&lt;/td&gt;&lt;/tr&gt;&lt;tr&gt;&lt;td&gt;FK1&lt;/td&gt;&lt;td&gt;workout_acutal&lt;/td&gt;&lt;/tr&gt;&lt;tr&gt;&lt;td&gt;FK2&lt;/td&gt;&lt;td&gt;workout_goals&lt;/td&gt;&lt;/tr&gt;&lt;tr&gt;&lt;td&gt;&lt;br&gt;&lt;/td&gt;&lt;td&gt;met_day_goals&lt;/td&gt;&lt;/tr&gt;&lt;tr&gt;&lt;td&gt;&lt;br&gt;&lt;/td&gt;&lt;td&gt;met_day_goal_percent&lt;/td&gt;&lt;/tr&gt;&lt;tr&gt;&lt;td&gt;&lt;br&gt;&lt;/td&gt;&lt;td&gt;date&lt;/td&gt;&lt;/tr&gt;&lt;tr&gt;&lt;td&gt;&lt;br&gt;&lt;/td&gt;&lt;td&gt;time_start&lt;/td&gt;&lt;/tr&gt;&lt;tr&gt;&lt;td&gt;&lt;br&gt;&lt;/td&gt;&lt;td&gt;time_end&lt;/td&gt;&lt;/tr&gt;&lt;/tbody&gt;&lt;/table&gt;" style="verticalAlign=top;align=left;overflow=fill;html=1;rounded=0;shadow=0;comic=0;labelBackgroundColor=none;strokeWidth=1;fontFamily=Verdana;fontSize=12" parent="1" vertex="1">
                    <mxGeometry x="730" y="530" width="180" height="200" as="geometry"/>
                </mxCell>
                <mxCell id="MJs-i36JxJc8pLhcD7cr-9" style="edgeStyle=orthogonalEdgeStyle;rounded=0;orthogonalLoop=1;jettySize=auto;html=1;exitX=0.5;exitY=1;exitDx=0;exitDy=0;entryX=1;entryY=0.2;entryDx=0;entryDy=0;entryPerimeter=0;endArrow=ERmany;endFill=0;strokeWidth=1;startSize=12;endSize=12;" parent="1" source="2ed32ef02a7f4228-10" target="2ed32ef02a7f4228-9" edge="1">
                    <mxGeometry relative="1" as="geometry"/>
                </mxCell>
                <mxCell id="2ed32ef02a7f4228-10" value="&lt;div style=&quot;box-sizing: border-box ; width: 100% ; background: #e4e4e4 ; padding: 2px&quot;&gt;workout_actual&lt;/div&gt;&lt;table style=&quot;width: 100% ; font-size: 1em&quot; cellpadding=&quot;2&quot; cellspacing=&quot;0&quot;&gt;&lt;tbody&gt;&lt;tr&gt;&lt;td&gt;PK&lt;/td&gt;&lt;td&gt;uniqueId&lt;/td&gt;&lt;/tr&gt;&lt;tr&gt;&lt;td&gt;FK1&lt;/td&gt;&lt;td&gt;exercise&lt;/td&gt;&lt;/tr&gt;&lt;tr&gt;&lt;td&gt;FK2&lt;/td&gt;&lt;td&gt;exercise_type&lt;/td&gt;&lt;/tr&gt;&lt;tr&gt;&lt;td&gt;if&lt;/td&gt;&lt;td&gt;num_sets&lt;/td&gt;&lt;/tr&gt;&lt;tr&gt;&lt;td&gt;if&lt;/td&gt;&lt;td&gt;reps_per_set&lt;br&gt;&lt;/td&gt;&lt;/tr&gt;&lt;tr&gt;&lt;td&gt;If&lt;/td&gt;&lt;td&gt;weight_lifted&lt;br&gt;&lt;/td&gt;&lt;/tr&gt;&lt;tr&gt;&lt;td&gt;If&lt;/td&gt;&lt;td&gt;duration&lt;br&gt;&lt;/td&gt;&lt;/tr&gt;&lt;tr&gt;&lt;td&gt;If&lt;/td&gt;&lt;td&gt;avg_speed&lt;br&gt;&lt;/td&gt;&lt;/tr&gt;&lt;tr&gt;&lt;td&gt;If&lt;/td&gt;&lt;td&gt;distance_traveled&lt;br&gt;&lt;/td&gt;&lt;/tr&gt;&lt;tr&gt;&lt;td&gt;if&lt;/td&gt;&lt;td&gt;goal_met&lt;/td&gt;&lt;/tr&gt;&lt;/tbody&gt;&lt;/table&gt;" style="verticalAlign=top;align=left;overflow=fill;html=1;rounded=0;shadow=0;comic=0;labelBackgroundColor=none;strokeWidth=1;fontFamily=Verdana;fontSize=12" parent="1" vertex="1">
                    <mxGeometry x="660" y="170" width="180" height="200" as="geometry"/>
                </mxCell>
                <mxCell id="MJs-i36JxJc8pLhcD7cr-16" style="edgeStyle=orthogonalEdgeStyle;rounded=0;orthogonalLoop=1;jettySize=auto;html=1;exitX=1;exitY=0.25;exitDx=0;exitDy=0;entryX=1;entryY=0.295;entryDx=0;entryDy=0;entryPerimeter=0;startArrow=none;startFill=0;startSize=12;endArrow=classic;endFill=1;endSize=12;strokeWidth=1;" parent="1" source="2ed32ef02a7f4228-12" target="2ed32ef02a7f4228-3" edge="1">
                    <mxGeometry relative="1" as="geometry">
                        <Array as="points">
                            <mxPoint x="280" y="170"/>
                            <mxPoint x="280" y="329"/>
                        </Array>
                    </mxGeometry>
                </mxCell>
                <mxCell id="2ed32ef02a7f4228-12" value="&lt;div style=&quot;box-sizing: border-box ; width: 100% ; background: #e4e4e4 ; padding: 2px&quot;&gt;Equipment (Future)&lt;/div&gt;&lt;table style=&quot;width: 100% ; font-size: 1em&quot; cellpadding=&quot;2&quot; cellspacing=&quot;0&quot;&gt;&lt;tbody&gt;&lt;tr&gt;&lt;td&gt;PK&lt;/td&gt;&lt;td&gt;uniqueId&lt;/td&gt;&lt;/tr&gt;&lt;tr&gt;&lt;td&gt;&lt;br&gt;&lt;/td&gt;&lt;td&gt;Name&lt;/td&gt;&lt;/tr&gt;&lt;tr&gt;&lt;td&gt;&lt;/td&gt;&lt;td&gt;type&lt;/td&gt;&lt;/tr&gt;&lt;tr&gt;&lt;td&gt;&lt;br&gt;&lt;/td&gt;&lt;td&gt;min_weight&lt;br&gt;&lt;/td&gt;&lt;/tr&gt;&lt;tr&gt;&lt;td&gt;&lt;br&gt;&lt;/td&gt;&lt;td&gt;max_weight&lt;br&gt;&lt;/td&gt;&lt;/tr&gt;&lt;/tbody&gt;&lt;/table&gt;" style="verticalAlign=top;align=left;overflow=fill;html=1;rounded=0;shadow=0;comic=0;labelBackgroundColor=none;strokeWidth=1;fontFamily=Verdana;fontSize=12" parent="1" vertex="1">
                    <mxGeometry x="60" y="140" width="180" height="120" as="geometry"/>
                </mxCell>
                <mxCell id="MJs-i36JxJc8pLhcD7cr-10" style="edgeStyle=orthogonalEdgeStyle;rounded=0;orthogonalLoop=1;jettySize=auto;html=1;exitX=0.5;exitY=1;exitDx=0;exitDy=0;entryX=1;entryY=0.315;entryDx=0;entryDy=0;endArrow=ERmany;endFill=0;entryPerimeter=0;strokeWidth=1;startSize=12;endSize=12;" parent="1" source="MJs-i36JxJc8pLhcD7cr-3" target="2ed32ef02a7f4228-9" edge="1">
                    <mxGeometry relative="1" as="geometry"/>
                </mxCell>
                <mxCell id="MJs-i36JxJc8pLhcD7cr-3" value="&lt;div style=&quot;box-sizing: border-box ; width: 100% ; background: #e4e4e4 ; padding: 2px&quot;&gt;workout_goal&lt;/div&gt;&lt;table style=&quot;width: 100% ; font-size: 1em&quot; cellpadding=&quot;2&quot; cellspacing=&quot;0&quot;&gt;&lt;tbody&gt;&lt;tr&gt;&lt;td&gt;PK&lt;/td&gt;&lt;td&gt;uniqueId&lt;/td&gt;&lt;/tr&gt;&lt;tr&gt;&lt;td&gt;FK1&lt;/td&gt;&lt;td&gt;exercise&lt;/td&gt;&lt;/tr&gt;&lt;tr&gt;&lt;td&gt;FK2&lt;/td&gt;&lt;td&gt;exercise_type&lt;/td&gt;&lt;/tr&gt;&lt;tr&gt;&lt;td&gt;if&lt;/td&gt;&lt;td&gt;sets&lt;/td&gt;&lt;/tr&gt;&lt;tr&gt;&lt;td&gt;if&lt;/td&gt;&lt;td&gt;reps_per_set&lt;br&gt;&lt;/td&gt;&lt;/tr&gt;&lt;tr&gt;&lt;td&gt;If&lt;/td&gt;&lt;td&gt;weight_exercise&lt;br&gt;&lt;/td&gt;&lt;/tr&gt;&lt;tr&gt;&lt;td&gt;If&lt;/td&gt;&lt;td&gt;time_length&lt;br&gt;&lt;/td&gt;&lt;/tr&gt;&lt;tr&gt;&lt;td&gt;If&lt;/td&gt;&lt;td&gt;avg_speed&lt;br&gt;&lt;/td&gt;&lt;/tr&gt;&lt;tr&gt;&lt;td&gt;If&lt;/td&gt;&lt;td&gt;distance_traveled&lt;br&gt;&lt;/td&gt;&lt;/tr&gt;&lt;/tbody&gt;&lt;/table&gt;" style="verticalAlign=top;align=left;overflow=fill;html=1;rounded=0;shadow=0;comic=0;labelBackgroundColor=none;strokeWidth=1;fontFamily=Verdana;fontSize=12" parent="1" vertex="1">
                    <mxGeometry x="900" y="170" width="180" height="200" as="geometry"/>
                </mxCell>
                <mxCell id="MJs-i36JxJc8pLhcD7cr-5" value="&lt;font style=&quot;font-size: 16px&quot;&gt;FUTURE&lt;/font&gt;" style="text;html=1;strokeColor=none;fillColor=none;align=center;verticalAlign=middle;whiteSpace=wrap;rounded=0;" parent="1" vertex="1">
                    <mxGeometry x="60" y="10" width="40" height="20" as="geometry"/>
                </mxCell>
                <mxCell id="MJs-i36JxJc8pLhcD7cr-15" style="edgeStyle=orthogonalEdgeStyle;rounded=0;orthogonalLoop=1;jettySize=auto;html=1;exitX=1;exitY=0.25;exitDx=0;exitDy=0;entryX=0.006;entryY=0.64;entryDx=0;entryDy=0;startArrow=none;startFill=0;startSize=12;endArrow=classic;endFill=1;endSize=12;strokeWidth=1;entryPerimeter=0;" parent="1" source="2ed32ef02a7f4228-12" target="2ed32ef02a7f4228-4" edge="1">
                    <mxGeometry relative="1" as="geometry">
                        <mxPoint x="250" y="72.5" as="sourcePoint"/>
                        <mxPoint x="910" y="93" as="targetPoint"/>
                        <Array as="points">
                            <mxPoint x="280" y="170"/>
                            <mxPoint x="280" y="30"/>
                            <mxPoint x="790" y="30"/>
                            <mxPoint x="790" y="104"/>
                        </Array>
                    </mxGeometry>
                </mxCell>
            </root>
        </mxGraphModel>
    </diagram>
</mxfile>